PathFileType	4	(X/Y/Z)	OpenSim_Sub09_EMGStiffKnee_Magnet.trc
DataRate	CameraRate	NumFrames	NumMarkers	Units	OrigDataRate	OrigDataStartFrame	OrigNumFrames
100	100	20	8	m	100	4741	7584
Frame#	Time	torso_imu_offset_imu	pelvis_imu_offset_imu	tibia_r_imu_offset_imu	femur_r_imu_offset_imu	tibia_l_imu_offset_imu	femur_l_imu_offset_imu	toes_r_imu_offset_imu	toes_l_imu_offset_imu
				X1	Y1	Z1	X2	Y2	Z2	X3	Y3	Z3	X4	Y4	Z4	X5	Y5	Z5	X6	Y6	Z6	X7	Y7	Z7	X8		Y8	Z8	

4741	47.40000000	-0.91109404	-0.27007156	-0.00224710	-0.58128939	0.37242605	-0.66982333	-0.56106180	-0.68026388	-0.10727910	-0.83243441	-0.21913581	-0.13225138	-0.58350546	0.51255025	0.30041213	-0.63965327	0.39717618	0.33133409	-0.64014251	-0.15439763	-0.40903417	-0.76422484	-0.11319347	-0.34143942
4742	47.41000000	-0.91372796	-0.27237344	0.00506172	-0.58087951	0.36527527	-0.67177087	-0.57751167	-0.66535567	-0.11748962	-0.83268768	-0.22061659	-0.13395476	-0.57709419	0.51908078	0.30833015	-0.63706824	0.39899801	0.34815957	-0.63811790	-0.14411079	-0.42672134	-0.76642494	-0.11442083	-0.34357645
4743	47.42000000	-0.90931727	-0.27228111	0.00514142	-0.57736044	0.36641934	-0.67449072	-0.60514622	-0.64955629	-0.12282817	-0.83068878	-0.21365922	-0.13503459	-0.57523036	0.52115861	0.30941616	-0.63535223	0.40359993	0.35002083	-0.63445001	-0.13352973	-0.44013611	-0.76868923	-0.11793240	-0.33917358
4744	47.43000000	-0.91294136	-0.27486754	0.01139733	-0.57034594	0.36490855	-0.66986135	-0.62373560	-0.62234984	-0.12964260	-0.83489599	-0.20252700	-0.13064732	-0.56385566	0.53174203	0.30635270	-0.63097466	0.40361752	0.34939329	-0.63044360	-0.12507919	-0.45240692	-0.76904831	-0.10700901	-0.34343353
4745	47.44000000	-0.91214462	-0.26865217	0.01531844	-0.57202446	0.36643757	-0.67367005	-0.63903884	-0.60707359	-0.14384477	-0.83530160	-0.19875894	-0.13061606	-0.57252563	0.53677487	0.30579819	-0.62725228	0.40958443	0.35166237	-0.62271515	-0.11531924	-0.46718591	-0.77339322	-0.10632777	-0.33749055
4746	47.45000000	-0.90726834	-0.27024014	0.02507417	-0.57063751	0.36694354	-0.67858167	-0.65188592	-0.58491963	-0.14745417	-0.83786479	-0.18796985	-0.12883505	-0.56096959	0.54277183	0.30747537	-0.61809249	0.41649748	0.35188029	-0.61466069	-0.10067434	-0.47967353	-0.77381165	-0.10443551	-0.33843967
4747	47.46000000	-0.91118419	-0.26635796	0.01827819	-0.56412327	0.36455659	-0.68134755	-0.67151816	-0.56373059	-0.15834673	-0.83317202	-0.19133225	-0.12860909	-0.55548999	0.55199243	0.30577568	-0.62405522	0.42082083	0.34987605	-0.60865868	-0.09016238	-0.49815685	-0.77618936	-0.10433555	-0.34370972
4748	47.47000000	-0.91189006	-0.26811895	0.03035732	-0.56362642	0.36892502	-0.68115785	-0.68125082	-0.54464315	-0.16872034	-0.84358516	-0.18967670	-0.12710093	-0.55351324	0.55412243	0.29439049	-0.62098692	0.42750361	0.34484527	-0.60040570	-0.07932107	-0.51500205	-0.77204781	-0.10211086	-0.33533364
4749	47.48000000	-0.90937557	-0.26651511	0.03175633	-0.56352551	0.36316098	-0.68559858	-0.69384761	-0.52981750	-0.17555628	-0.83788646	-0.19375847	-0.11775325	-0.54969075	0.56472692	0.29503166	-0.61806744	0.42988178	0.35121138	-0.59509718	-0.07515758	-0.53422513	-0.77342805	-0.10244461	-0.33218281
4750	47.49000000	-0.91327251	-0.26239000	0.03299191	-0.56345757	0.36471342	-0.68553515	-0.70732581	-0.51177504	-0.18904917	-0.84539396	-0.18841703	-0.11316611	-0.54286492	0.56962551	0.29532880	-0.61882698	0.43572801	0.34755165	-0.57486943	-0.06309366	-0.54321409	-0.77684014	-0.09401171	-0.33429331
4751	47.50000000	-0.91621169	-0.25819019	0.03899212	-0.56190411	0.35942478	-0.69472744	-0.71688867	-0.48845824	-0.20220050	-0.84474069	-0.18713936	-0.11008154	-0.54106417	0.57791860	0.28867018	-0.61052150	0.44289660	0.34467708	-0.56766876	-0.05388746	-0.55736640	-0.77210630	-0.09114998	-0.33890840
4752	47.51000000	-0.91220517	-0.25403467	0.04618307	-0.55311176	0.35292060	-0.68862781	-0.72309006	-0.47506442	-0.20064606	-0.83771079	-0.19536919	-0.11667038	-0.53241127	0.59092094	0.28092740	-0.60961254	0.44535737	0.34502430	-0.55776177	-0.05159332	-0.56836105	-0.78045428	-0.08909847	-0.33569821
4753	47.52000000	-0.91441025	-0.24739080	0.04405687	-0.55208496	0.34647137	-0.68676467	-0.73632503	-0.46092746	-0.20724006	-0.83918688	-0.19406644	-0.11116111	-0.53271108	0.60260036	0.27575794	-0.61039278	0.44911550	0.33860648	-0.54760243	-0.04565750	-0.57473640	-0.78158514	-0.08697632	-0.32584655
4754	47.53000000	-0.91005470	-0.24725666	0.04769979	-0.55217933	0.34228705	-0.69801013	-0.73988225	-0.44652582	-0.21227709	-0.84183097	-0.19564019	-0.10341536	-0.52017845	0.60690497	0.27291962	-0.60450735	0.45571482	0.33519377	-0.53487943	-0.03911334	-0.58293970	-0.77909451	-0.08273209	-0.33200324
4755	47.54000000	-0.91804659	-0.24155982	0.05237520	-0.54993239	0.33605228	-0.70300947	-0.74406680	-0.42607545	-0.22002269	-0.83814749	-0.19957460	-0.10549084	-0.51531589	0.61953934	0.27022952	-0.59936243	0.46044272	0.33816385	-0.53275728	-0.03332055	-0.58954240	-0.78105192	-0.07838084	-0.32880948
4756	47.55000000	-0.91719759	-0.23880924	0.05364754	-0.54966110	0.33018302	-0.70770110	-0.75158468	-0.40793557	-0.22068670	-0.83119848	-0.20217966	-0.10274295	-0.50721107	0.62893210	0.26514707	-0.60345765	0.46660206	0.32692498	-0.52116035	-0.02288853	-0.59560795	-0.78580419	-0.07366620	-0.31979142
4757	47.56000000	-0.91481236	-0.23714461	0.06510444	-0.54733523	0.32117346	-0.70949288	-0.74916378	-0.40761138	-0.22546084	-0.83484714	-0.20007161	-0.10992357	-0.50047417	0.63728846	0.26449209	-0.60485264	0.47162953	0.33074742	-0.51448436	-0.01628307	-0.60443390	-0.78636628	-0.07371130	-0.31487145
4758	47.57000000	-0.91652012	-0.22891403	0.05893858	-0.54535358	0.32146090	-0.71647861	-0.75975179	-0.39592000	-0.21923509	-0.83371438	-0.20175691	-0.09930046	-0.49196166	0.64898814	0.25588207	-0.59588394	0.47111692	0.32093859	-0.50806670	-0.00829629	-0.60518367	-0.78410030	-0.06760416	-0.30880459
4759	47.58000000	-0.92294905	-0.22482583	0.06439944	-0.54032067	0.31128443	-0.71433641	-0.75880611	-0.38926790	-0.22771359	-0.82919283	-0.20429779	-0.10004082	-0.48389237	0.65138636	0.24587245	-0.59959686	0.48198719	0.31290514	-0.50983539	-0.00504422	-0.60470288	-0.78828719	-0.06296883	-0.29924994
4760	47.59000000	-0.92621080	-0.21419722	0.06433192	-0.54425061	0.30902287	-0.71600424	-0.75923213	-0.37836463	-0.22452148	-0.82867341	-0.20004073	-0.10292560	-0.46586685	0.66167709	0.24733279	-0.60290639	0.48216302	0.31459592	-0.50813657	-0.00970386	-0.60891088	-0.79288344	-0.06090203	-0.29756447
